<svg width="142" height="45" viewBox="0 0 142 45" fill="none" xmlns="http://www.w3.org/2000/svg">
<path d="M100.22 36.396C98.612 36.396 97.184 36.072 95.936 35.424C94.712 34.752 93.752 33.84 93.056 32.688C92.36 31.512 92.012 30.168 92.012 28.656V18.504H97.52V28.584C97.52 29.184 97.616 29.7 97.808 30.132C98.024 30.564 98.336 30.9 98.744 31.14C99.152 31.38 99.644 31.5 100.22 31.5C101.036 31.5 101.684 31.248 102.164 30.744C102.644 30.216 102.884 29.496 102.884 28.584V18.504H108.392V28.62C108.392 30.156 108.044 31.512 107.348 32.688C106.652 33.84 105.692 34.752 104.468 35.424C103.244 36.072 101.828 36.396 100.22 36.396ZM111.85 36V18.504H117.358V36H111.85ZM117.358 26.388L115.054 24.588C115.51 22.548 116.278 20.964 117.358 19.836C118.438 18.708 119.938 18.144 121.858 18.144C122.698 18.144 123.43 18.276 124.054 18.54C124.702 18.78 125.266 19.164 125.746 19.692L122.47 23.832C122.23 23.568 121.93 23.364 121.57 23.22C121.21 23.076 120.802 23.004 120.346 23.004C119.434 23.004 118.702 23.292 118.15 23.868C117.622 24.42 117.358 25.26 117.358 26.388ZM133.199 36.432C132.167 36.432 131.147 36.3 130.139 36.036C129.155 35.772 128.231 35.4 127.367 34.92C126.527 34.416 125.807 33.84 125.207 33.192L128.339 30.024C128.915 30.648 129.599 31.14 130.391 31.5C131.183 31.836 132.047 32.004 132.983 32.004C133.631 32.004 134.123 31.908 134.459 31.716C134.819 31.524 134.999 31.26 134.999 30.924C134.999 30.492 134.783 30.168 134.351 29.952C133.943 29.712 133.415 29.508 132.767 29.34C132.119 29.148 131.435 28.944 130.715 28.728C129.995 28.512 129.311 28.212 128.663 27.828C128.015 27.444 127.487 26.916 127.079 26.244C126.671 25.548 126.467 24.672 126.467 23.616C126.467 22.488 126.755 21.516 127.331 20.7C127.907 19.86 128.723 19.2 129.779 18.72C130.835 18.24 132.071 18 133.487 18C134.975 18 136.343 18.264 137.591 18.792C138.863 19.296 139.895 20.052 140.687 21.06L137.555 24.228C137.003 23.58 136.379 23.124 135.683 22.86C135.011 22.596 134.351 22.464 133.703 22.464C133.079 22.464 132.611 22.56 132.299 22.752C131.987 22.92 131.831 23.172 131.831 23.508C131.831 23.868 132.035 24.156 132.443 24.372C132.851 24.588 133.379 24.78 134.027 24.948C134.675 25.116 135.359 25.32 136.079 25.56C136.799 25.8 137.483 26.124 138.131 26.532C138.779 26.94 139.307 27.492 139.715 28.188C140.123 28.86 140.327 29.748 140.327 30.852C140.327 32.556 139.679 33.912 138.383 34.92C137.111 35.928 135.383 36.432 133.199 36.432Z" fill="#205295"/>
<path d="M10.796 36.36C9.092 36.36 7.556 35.976 6.188 35.208C4.82 34.416 3.74 33.348 2.948 32.004C2.156 30.66 1.76 29.136 1.76 27.432C1.76 25.752 2.144 24.24 2.912 22.896C3.704 21.552 4.76 20.496 6.08 19.728C7.424 18.936 8.924 18.54 10.58 18.54C12.164 18.54 13.556 18.9 14.756 19.62C15.98 20.34 16.928 21.336 17.6 22.608C18.296 23.88 18.644 25.32 18.644 26.928C18.644 27.168 18.632 27.432 18.608 27.72C18.584 27.984 18.536 28.296 18.464 28.656H4.028V25.956H16.736L15.548 27C15.548 25.848 15.344 24.876 14.936 24.084C14.528 23.268 13.952 22.644 13.208 22.212C12.464 21.756 11.564 21.528 10.508 21.528C9.404 21.528 8.432 21.768 7.592 22.248C6.752 22.728 6.104 23.4 5.648 24.264C5.192 25.128 4.964 26.148 4.964 27.324C4.964 28.524 5.204 29.58 5.684 30.492C6.164 31.38 6.848 32.076 7.736 32.58C8.624 33.06 9.644 33.3 10.796 33.3C11.756 33.3 12.632 33.132 13.424 32.796C14.24 32.46 14.936 31.956 15.512 31.284L17.6 33.408C16.784 34.368 15.776 35.1 14.576 35.604C13.4 36.108 12.14 36.36 10.796 36.36ZM27.7635 36L19.9155 18.9H23.5155L29.8155 33.336H27.7275L34.0635 18.9H37.5195L29.6715 36H27.7635ZM47.5343 36.36C45.8303 36.36 44.2943 35.976 42.9263 35.208C41.5583 34.416 40.4783 33.348 39.6863 32.004C38.8943 30.66 38.4983 29.136 38.4983 27.432C38.4983 25.752 38.8823 24.24 39.6503 22.896C40.4423 21.552 41.4983 20.496 42.8183 19.728C44.1623 18.936 45.6623 18.54 47.3183 18.54C48.9023 18.54 50.2943 18.9 51.4943 19.62C52.7183 20.34 53.6663 21.336 54.3383 22.608C55.0343 23.88 55.3823 25.32 55.3823 26.928C55.3823 27.168 55.3703 27.432 55.3463 27.72C55.3223 27.984 55.2743 28.296 55.2023 28.656H40.7663V25.956H53.4743L52.2863 27C52.2863 25.848 52.0823 24.876 51.6743 24.084C51.2663 23.268 50.6903 22.644 49.9463 22.212C49.2023 21.756 48.3023 21.528 47.2463 21.528C46.1423 21.528 45.1703 21.768 44.3303 22.248C43.4903 22.728 42.8423 23.4 42.3863 24.264C41.9303 25.128 41.7023 26.148 41.7023 27.324C41.7023 28.524 41.9423 29.58 42.4223 30.492C42.9023 31.38 43.5863 32.076 44.4743 32.58C45.3623 33.06 46.3823 33.3 47.5343 33.3C48.4943 33.3 49.3703 33.132 50.1623 32.796C50.9783 32.46 51.6743 31.956 52.2503 31.284L54.3383 33.408C53.5223 34.368 52.5143 35.1 51.3143 35.604C50.1383 36.108 48.8783 36.36 47.5343 36.36ZM71.0111 36V26.028C71.0111 24.732 70.6031 23.664 69.7871 22.824C68.9711 21.984 67.9151 21.564 66.6191 21.564C65.7551 21.564 64.9871 21.756 64.3151 22.14C63.6431 22.524 63.1151 23.052 62.7311 23.724C62.3471 24.396 62.1551 25.164 62.1551 26.028L60.8231 25.272C60.8231 23.976 61.1111 22.824 61.6871 21.816C62.2631 20.808 63.0671 20.016 64.0991 19.44C65.1311 18.84 66.2951 18.54 67.5911 18.54C68.8871 18.54 70.0271 18.864 71.0111 19.512C72.0191 20.16 72.8111 21.012 73.3871 22.068C73.9631 23.1 74.2511 24.204 74.2511 25.38V36H71.0111ZM58.9151 36V18.9H62.1551V36H58.9151ZM81.0548 36V11.736H84.2948V36H81.0548ZM76.8428 21.852V18.9H88.5068V21.852H76.8428Z" fill="#2C74B3"/>
<path d="M117 38.3576C106.6 41.5576 96.3333 39.6909 92.5 38.3576C101 41.3576 101.972 44.2331 117.5 40.8575C129 38.3576 137.833 39.1909 140.5 40.3576C137 38.3576 127.4 35.1576 117 38.3576Z" fill="#205295"/>
</svg>
